<svg width="254" height="219" viewBox="0 0 254 219" fill="none" xmlns="http://www.w3.org/2000/svg">
<path d="M126.95 218.73L19.6136 111.394C7.28896 99.0694 0.5 82.6814 0.5 65.2538C0.5 47.8234 7.28896 31.4383 19.6136 19.1136C31.9383 6.78896 48.3234 0 65.7538 0C83.1843 0 99.5694 6.78896 111.894 19.1136L126.95 34.1696L142.006 19.1136C154.331 6.78896 170.719 0 188.146 0C205.577 0 221.962 6.78896 234.286 19.1136C246.614 31.4383 253.4 47.8234 253.4 65.2538C253.4 82.6843 246.614 99.0694 234.286 111.394L126.95 218.73Z" fill="#ED4956"/>
</svg>
